<svg width="100" height="100" viewBox="0 0 100 100" fill="none" xmlns="http://www.w3.org/2000/svg">
<g clip-path="url(#clip0_1_59)">
<path d="M19.8573 85.8656C19.7897 85.8656 19.7227 85.8639 19.6559 85.8604V91.8973C19.6559 93.5528 20.9979 94.8947 22.6533 94.8947H27.0965C28.752 94.8947 30.094 93.5528 30.094 91.8973V85.8656H19.8573Z" fill="#1D4859"/>
<path d="M80.1422 85.8656H69.9061V91.8973C69.9061 93.5528 71.2481 94.8947 72.9035 94.8947H77.3465C79.002 94.8947 80.344 93.5528 80.344 91.8973V85.8604C80.2768 85.8637 80.2096 85.8656 80.1422 85.8656Z" fill="#1D4859"/>
<path d="M24.3859 62.6381H75.6133C77.2244 62.6381 78.7285 63.0953 80.0045 63.8852L74.6295 46.9487C73.9814 44.9065 72.0855 43.5194 69.9431 43.5194H30.0558C27.9133 43.5194 26.0176 44.9067 25.3695 46.9487L19.9945 63.8852C21.2709 63.0953 22.7746 62.6381 24.3859 62.6381Z" fill="#E5E5E5"/>
<path d="M80.1422 86.0555H19.8572C17.7432 86.0555 16.0293 84.3416 16.0293 82.2275V70.9947C16.0293 66.3797 19.7707 62.6383 24.3857 62.6383H75.6133C80.2283 62.6383 83.9697 66.3797 83.9697 70.9947V82.2275C83.9699 84.3416 82.2561 86.0555 80.1422 86.0555Z" fill="#515151"/>
<path d="M21.8277 74.0129L28.2291 75.6868C28.5471 75.77 28.7978 76.0141 28.8893 76.3295L29.9352 79.9327C30.1355 80.6231 29.5133 81.2711 28.8154 81.0991L21.8535 79.3819C21.482 79.2901 21.2041 78.9811 21.1521 78.6018L20.667 75.0424C20.5769 74.3834 21.1846 73.8448 21.8277 74.0129Z" fill="#FEE570"/>
<path d="M78.1717 74.0129L71.7705 75.6868C71.4525 75.77 71.2018 76.0141 71.1103 76.3295L70.0645 79.9327C69.8641 80.6231 70.4863 81.2711 71.1842 81.0991L78.1461 79.3819C78.5176 79.2901 78.7955 78.9811 78.8475 78.6018L79.3326 75.0424C79.4225 74.3834 78.8149 73.8448 78.1717 74.0129Z" fill="#FEE570"/>
<path d="M81.495 64.5012H85.6985C86.6487 64.5012 87.4188 63.731 87.4188 62.7809V60.668C87.4188 59.7178 86.6487 58.9477 85.6985 58.9477H81.495C80.5448 58.9477 79.7747 59.7178 79.7747 60.668V62.7807C79.7747 63.7309 80.5448 64.5012 81.495 64.5012Z" fill="#393939"/>
<path d="M14.3407 64.5012H18.5442C19.4944 64.5012 20.2645 63.731 20.2645 62.7809V60.668C20.2645 59.7178 19.4944 58.9477 18.5442 58.9477H14.3407C13.3905 58.9477 12.6204 59.7178 12.6204 60.668V62.7807C12.6204 63.7309 13.3905 64.5012 14.3407 64.5012Z" fill="#393939"/>
<path d="M3.84061 94.8943H6.94881C7.51893 94.8943 7.98065 94.4322 7.98065 93.8625V34.2082C7.98065 33.6381 7.51854 33.1764 6.94881 33.1764H3.84061C3.2705 33.1764 2.80878 33.6385 2.80878 34.2082V93.8625C2.80839 94.4322 3.2705 94.8943 3.84061 94.8943Z" fill="#2C5871"/>
<path d="M6.94863 33.176H5.39453V94.8944H6.94863C7.51875 94.8944 7.98067 94.4323 7.98067 93.8623V34.208C7.98086 33.6381 7.51875 33.176 6.94863 33.176Z" fill="#1D4859"/>
<path d="M93.0514 94.8943H96.1598C96.7299 94.8943 97.1916 94.4322 97.1916 93.8625V34.2082C97.1916 33.6381 96.7295 33.1764 96.1598 33.1764H93.0514C92.4813 33.1764 92.0193 33.6385 92.0193 34.2082V93.8625C92.0192 94.4322 92.4813 94.8943 93.0514 94.8943Z" fill="#2C5871"/>
<path d="M96.1594 33.176H94.6053V94.8944H96.1594C96.7295 94.8944 97.1912 94.4323 97.1912 93.8623V34.208C97.1916 33.6381 96.7295 33.176 96.1594 33.176Z" fill="#1D4859"/>
<path d="M50.957 5.33105C50.3543 5.03046 49.6453 5.03046 49.0428 5.33105L1.47402 29.0576C0.570898 29.5082 0 30.4305 0 31.44V36.3144C0 38.2924 2.08066 39.5797 3.85059 38.6969L49.043 16.1557C49.6457 15.8551 50.3545 15.8551 50.9572 16.1557L96.1494 38.6969C97.9195 39.5797 100 38.2926 100 36.3144V31.44C100 30.4307 99.4293 29.5082 98.5262 29.0576L50.957 5.33105Z" fill="#C6004D"/>
<path d="M96.1492 33.3169L50.957 10.7759C50.3543 10.4753 49.6455 10.4753 49.0428 10.7759L3.85078 33.3169C2.1584 34.1611 0.183398 33.0207 0.0132813 31.1898C0.00546875 31.2726 0 31.3558 0 31.44V36.3144C0 38.2923 2.08066 39.5796 3.85078 38.6968L49.043 16.1556C49.6457 15.855 50.3547 15.855 50.9572 16.1556L96.1494 38.6968C97.9195 39.5796 100 38.2925 100 36.3144V31.44C100 31.3558 99.9947 31.2728 99.9871 31.1902C99.8166 33.0209 97.8418 34.1613 96.1492 33.3169Z" fill="#8F0038"/>
<path d="M66.6623 74.8797H33.3371C32.5266 74.8797 31.8699 75.5365 31.8699 76.3469C31.8699 77.1572 32.5266 77.814 33.3371 77.814H66.6623C67.4729 77.814 68.1295 77.1572 68.1295 76.3469C68.1297 75.5367 67.4727 74.8797 66.6623 74.8797Z" fill="#262529"/>
<path d="M65.6705 79.3094H34.3287C33.5182 79.3094 32.8615 79.9662 32.8615 80.7766C32.8615 81.5869 33.5182 82.2438 34.3287 82.2438H65.6705C66.481 82.2438 67.1377 81.5869 67.1377 80.7766C67.1379 79.9662 66.4808 79.3094 65.6705 79.3094Z" fill="#262529"/>
<path d="M80.6086 64.9373C81.1176 63.9867 81.2217 62.8695 80.8955 61.8418L76.0281 46.5049C75.183 43.8416 72.7379 42.0519 69.9434 42.0519H30.0559C27.2615 42.0519 24.8164 43.8414 23.9711 46.5049L19.1959 61.5521C18.806 62.7806 18.9332 64.1172 19.5568 65.2451C19.5732 65.2748 19.5826 65.2912 19.5838 65.2916C22.1076 69.0992 26.4178 71.5287 31.1937 71.5287H68.8057C73.581 71.5287 77.891 69.0996 80.415 65.2928C80.418 65.2916 80.4967 65.1463 80.6086 64.9373ZM75.6135 62.6381H24.3859C23.483 62.6381 22.6141 62.7826 21.7998 63.0476L26.7682 47.392C27.225 45.9529 28.5463 44.9859 30.056 44.9859H69.9435C71.4533 44.9859 72.7746 45.9527 73.2314 47.392L78.2 63.0476C77.3853 62.7828 76.5166 62.6381 75.6135 62.6381Z" fill="#393939"/>
</g>
<defs>
<clipPath id="clip0_1_59">
<rect width="100" height="100" fill="white"/>
</clipPath>
</defs>
</svg>
