<svg width="100" height="100" viewBox="0 0 100 100" fill="none" xmlns="http://www.w3.org/2000/svg">
<g clip-path="url(#clip0_1_81)">
<path d="M86.5194 33.9471H81.8007V91.9646H86.5194V33.9471Z" fill="#E1EFFB"/>
<path d="M86.5194 33.9471H84.16V91.9646H86.5194V33.9471Z" fill="#CCDFED"/>
<path d="M97.7834 40.9771H69.2252C68.0147 40.9771 67.0334 39.9958 67.0334 38.7853V10.2271C67.0334 9.01659 68.0147 8.03534 69.2252 8.03534H97.7834C98.9939 8.03534 99.9752 9.01659 99.9752 10.2271V38.7851C99.9752 39.9956 98.9937 40.9771 97.7834 40.9771Z" fill="#2DE8E8"/>
<path d="M97.7832 8.03534H69.2252C68.0147 8.03534 67.0334 9.01659 67.0334 10.2271V38.7851C67.0334 39.9956 68.0147 40.9769 69.2252 40.9769H97.7834C98.9939 40.9769 99.9752 39.9956 99.9752 38.7851V10.2271C99.9752 9.01659 98.9937 8.03534 97.7832 8.03534Z" fill="#C6004D"/>
<path d="M97.7833 8.03534H92.1321H91.3641C91.3686 8.09257 91.3727 8.14979 91.3727 8.208V36.7661C91.3727 37.9767 90.3915 38.9579 89.1809 38.9579H67.0421C67.0605 39.1929 67.1177 39.4165 67.2042 39.6249H67.2007C67.2689 39.7892 67.3573 39.9425 67.4614 40.0837C67.4671 40.0915 67.4732 40.0991 67.479 40.107C67.5116 40.1501 67.546 40.1919 67.5818 40.2325C67.5892 40.2409 67.5964 40.2495 67.604 40.2579C67.6452 40.3034 67.688 40.3476 67.7331 40.3894C67.7339 40.3902 67.7347 40.3909 67.7353 40.3915C67.7823 40.4353 67.8314 40.4767 67.8822 40.5163C67.89 40.5224 67.8984 40.5281 67.9062 40.5341C67.9472 40.5652 67.9892 40.5947 68.0323 40.6228C68.0472 40.6325 68.0622 40.6417 68.0775 40.6511C68.1163 40.6751 68.156 40.6978 68.1966 40.7195C68.2122 40.7279 68.2275 40.7363 68.2433 40.7443C68.2935 40.7697 68.3448 40.7931 68.3972 40.8146C68.4025 40.8167 68.4077 40.8195 68.413 40.8216C68.4708 40.8447 68.53 40.865 68.59 40.8831C68.607 40.8882 68.6241 40.8923 68.6411 40.897C68.6849 40.9091 68.7292 40.92 68.7739 40.9294C68.795 40.9339 68.8163 40.9378 68.8376 40.9417C68.8816 40.9495 68.9261 40.956 68.971 40.9611C68.9909 40.9634 69.0105 40.9661 69.0306 40.9679C69.0948 40.9736 69.1597 40.9773 69.2253 40.9773H97.7835C98.994 40.9773 99.9752 39.996 99.9752 38.7855V10.2271C99.9752 9.01659 98.9938 8.03534 97.7833 8.03534Z" fill="#8F0038"/>
<path d="M0 64.8252V79.0268C0 80.1432 0.657421 81.1547 1.67754 81.6082L8.19119 84.5031C8.74432 84.749 9.34295 84.876 9.94822 84.876H96.0287C98.2219 84.876 99.9998 83.0981 99.9998 80.9049V73.299C99.9998 71.9625 99.6353 70.6514 98.9455 69.5067L98.4822 68.7379C96.9457 66.1879 94.4059 64.4038 91.486 63.8231L78.1028 61.1616C75.3926 60.6225 72.817 59.1573 70.5274 57.6104L60.8286 51.0583C57.395 48.7387 53.346 47.4991 49.2022 47.4991H31.4001C25.9052 47.4991 20.6343 49.6766 16.7418 53.5547C13.8918 56.394 10.2787 58.3446 6.3412 59.1692L4.23593 59.6102C1.76777 60.1272 0 62.3036 0 64.8252Z" fill="#393939"/>
<path d="M98.9455 69.5067L98.4823 68.738C96.9457 66.188 94.4059 64.4038 91.486 63.8231L87.5649 63.0435C88.3627 63.7489 89.0582 64.5761 89.6192 65.5067L90.0825 66.2755C90.7723 67.4202 91.1368 68.7313 91.1368 70.0679V77.6737C91.1368 79.8669 89.3588 81.6448 87.1657 81.6448H1.75958L8.19121 84.5034C8.74433 84.7493 9.34297 84.8762 9.94824 84.8762H96.0289C98.2221 84.8762 100 83.0983 100 80.9051V73.2993C99.9998 71.9626 99.6354 70.6515 98.9455 69.5067Z" fill="#393939"/>
<path d="M12.4623 63.9358C12.4623 63.0591 12.951 62.2565 13.7291 61.8524C15.9955 60.6757 18.0808 59.1546 19.9154 57.3269C22.9867 54.2673 27.0654 52.5821 31.4001 52.5821H49.2023C52.4487 52.5821 55.621 53.5532 58.3112 55.3706L68.0102 61.923C68.6528 62.3571 69.3116 62.7593 69.9848 63.1294C70.877 63.62 71.4407 64.5472 71.4407 65.5653C71.4407 65.9628 71.1184 66.2851 70.721 66.2851H14.8117C13.514 66.2853 12.4623 65.2335 12.4623 63.9358Z" fill="#E5E5E5"/>
<path d="M83.8885 91.9647C88.4514 91.9647 92.1502 88.2658 92.1502 83.703C92.1502 79.1401 88.4514 75.4413 83.8885 75.4413C79.3257 75.4413 75.6268 79.1401 75.6268 83.703C75.6268 88.2658 79.3257 91.9647 83.8885 91.9647Z" fill="#2C5871"/>
<path d="M16.4707 91.9647C21.0335 91.9647 24.7324 88.2658 24.7324 83.703C24.7324 79.1401 21.0335 75.4413 16.4707 75.4413C11.9079 75.4413 8.20898 79.1401 8.20898 83.703C8.20898 88.2658 11.9079 91.9647 16.4707 91.9647Z" fill="#2C5871"/>
<path d="M22.313 89.5448C25.5394 86.3184 25.5394 81.0874 22.313 77.861L10.6293 89.5448C13.8556 92.7711 19.0867 92.7711 22.313 89.5448Z" fill="#1D4859"/>
<path d="M16.4706 86.6885C18.1195 86.6885 19.4562 85.3519 19.4562 83.703C19.4562 82.0541 18.1195 80.7175 16.4706 80.7175C14.8218 80.7175 13.4851 82.0541 13.4851 83.703C13.4851 85.3519 14.8218 86.6885 16.4706 86.6885Z" fill="#E1EFFB"/>
<path d="M89.7299 89.5448C92.9563 86.3184 92.9563 81.0874 89.7299 77.861L78.0461 89.5448C81.2727 92.7711 86.5036 92.7711 89.7299 89.5448Z" fill="#1D4859"/>
<path d="M83.8885 86.6885C85.5374 86.6885 86.874 85.3519 86.874 83.703C86.874 82.0541 85.5374 80.7175 83.8885 80.7175C82.2396 80.7175 80.903 82.0541 80.903 83.703C80.903 85.3519 82.2396 86.6885 83.8885 86.6885Z" fill="#E1EFFB"/>
<path d="M78.3236 18.9892C78.3236 18.4642 78.7984 17.9892 79.5484 17.9892H84.5726C87.7472 17.9892 90.2468 19.5142 90.2468 23.6136V23.7635C90.2468 27.8629 87.6722 29.4377 84.3726 29.4377H81.5728V35.2369C81.5728 35.9119 80.748 36.2619 79.948 36.2619C79.1232 36.2619 78.3232 35.9119 78.3232 35.2369V18.9892H78.3236ZM81.573 20.8388V26.8883H84.3728C85.9976 26.8883 86.9974 25.9633 86.9974 24.0135V23.7136C86.9974 21.7638 85.9976 20.8388 84.3728 20.8388H81.573Z" fill="white"/>
<path d="M38.1074 51.8945H35.1738V66.9745H38.1074V51.8945Z" fill="#393939"/>
</g>
<defs>
<clipPath id="clip0_1_81">
<rect width="100" height="100" fill="white"/>
</clipPath>
</defs>
</svg>
