<svg width="100" height="100" viewBox="0 0 100 100" fill="none" xmlns="http://www.w3.org/2000/svg">
<g clip-path="url(#clip0_1_23)">
<path d="M72.5807 44.3546V45.4865C72.5807 46.8734 72.8043 48.2511 73.2428 49.5668L75.8065 57.2578H80.6451V39.5158H77.4194C74.7471 39.516 72.5807 41.6822 72.5807 44.3546Z" fill="#5A4146"/>
<path d="M94.6649 47.7053L91.9356 57.258L79.0322 45.9678C77.2506 45.9678 75.8065 44.5235 75.8065 42.742C75.8065 40.0698 77.9729 37.9034 80.6451 37.9034H91.9354C93.717 37.9034 95.1611 39.3477 95.1611 41.1291V44.1608C95.1613 45.3594 94.9942 46.5524 94.6649 47.7053Z" fill="#694B4B"/>
<path d="M88.7086 62.0977H79.0312V69.2362H88.7086V62.0977Z" fill="#E6AF78"/>
<path d="M79.0322 65.0593C80.5281 65.6672 82.1594 66.0093 83.8709 66.0093C85.5824 66.0093 87.2137 65.6672 88.7096 65.0593V62.0966H79.0322V65.0593Z" fill="#D29B6E"/>
<path d="M96.4904 68.2326L88.7092 66.0095L83.8709 69.2203L79.0322 66.0093L71.2514 68.2326C69.174 68.8261 67.742 70.7248 67.742 72.8851V84.6773C67.742 85.5681 68.4641 86.2902 69.3549 86.2902H98.3871C99.2779 86.2902 100 85.5681 100 84.6773V72.8851C100 70.7246 98.5678 68.8261 96.4904 68.2326Z" fill="#D5DCED"/>
<path d="M85.4838 86.29H82.258L83.0644 69.2352H84.6773L85.4838 86.29Z" fill="#AFB9D2"/>
<path d="M83.8709 63.7096C78.5262 63.7096 74.1935 59.3768 74.1935 54.0323V52.1426C74.1935 51.2872 74.5334 50.4667 75.1383 49.8616L78.0631 46.9368C78.6824 46.3174 79.5293 45.9614 80.4047 45.9889C85.5605 46.1516 90.1242 47.2561 92.6189 49.6926C93.2297 50.2891 93.5484 51.1235 93.5484 51.977V54.0323C93.5484 59.377 89.2156 63.7096 83.8709 63.7096Z" fill="#F0C087"/>
<path d="M79.0322 52.5426C79.0322 50.6821 80.5947 49.2032 82.4516 49.3215C85.7076 49.5293 90.5392 50.0735 93.5035 51.4993C93.4068 50.8188 93.1144 50.1764 92.6189 49.6924C90.1242 47.2559 85.5605 46.1514 80.4047 45.9887L80.4045 45.9889V45.9887C79.5293 45.9612 78.6822 46.3174 78.0631 46.9366L75.1385 49.8612C74.5334 50.4661 74.1935 51.2866 74.1935 52.1422V54.0319C74.1935 58.4452 77.1508 62.161 81.1896 63.3246C79.8453 61.6661 79.0324 59.5606 79.0324 57.2577L79.0322 52.5426Z" fill="#E6AF78"/>
<path d="M93.5484 77.6912C93.5484 76.4078 94.0582 75.1771 94.9656 74.2697L99.1174 70.118C99.6723 70.9111 100 71.866 100 72.8853V84.6775C100 85.5684 99.2779 86.2904 98.3871 86.2904H93.5484V77.6912Z" fill="#C7CFE2"/>
<path d="M84.6773 72.4609H83.0644C82.6191 72.4609 82.258 72.0998 82.258 71.6545V69.2352H85.4838V71.6545C85.4838 72.0998 85.1228 72.4609 84.6773 72.4609Z" fill="#959CB5"/>
<path d="M83.8709 69.2205L81.1371 71.3086C80.6662 71.6683 79.9853 71.5242 79.7008 71.0043L77.2484 66.5258L78.2355 65.0201C78.4545 64.6861 78.9211 64.6293 79.2138 64.9008L83.8709 69.2205Z" fill="#C7CFE2"/>
<path d="M83.8708 69.2205L86.6046 71.3088C87.0755 71.6686 87.7564 71.5244 88.041 71.0045L90.4933 66.526L89.5062 65.0203C89.2873 64.6863 88.8207 64.6295 88.5279 64.901L83.8708 69.2205Z" fill="#C7CFE2"/>
<path d="M28.8715 63.0361C27.4932 59.3842 26.4 53.1062 26.1639 49.8377C25.7147 43.6178 21.0274 38.5475 14.691 38.5475C8.3547 38.5475 3.66739 43.618 3.21817 49.8377C2.98204 53.106 1.88887 59.3842 0.510554 63.0361C0.206843 63.8412 0.557429 64.7289 1.3502 65.0883C2.82716 65.7576 5.97618 67.0689 9.77403 67.5797H19.6078C23.3879 67.0678 26.559 65.7557 28.0316 65.0883C28.8246 64.7289 29.1752 63.8412 28.8715 63.0361Z" fill="#5A4146"/>
<path d="M28.0318 65.0885C28.8244 64.7291 29.1752 63.8414 28.8713 63.0363C27.4932 59.3844 26.3998 53.1065 26.1639 49.8379C25.7148 43.618 21.0273 38.5477 14.6912 38.5477C14.6752 38.5477 14.6594 38.5477 14.6434 38.5479C9.78144 38.5676 8.06328 45.1982 12.2486 47.6723C12.5 47.8209 12.6611 47.8924 12.6611 47.8924L16.327 67.5799H19.608C23.3881 67.0676 26.5592 65.7557 28.0318 65.0885Z" fill="#694B4B"/>
<path d="M26.3574 70.818L21.1379 68.2084C20.0449 67.6619 19.3545 66.5447 19.3547 65.3229L19.3551 60.484H9.67734V65.3231C9.67734 66.5449 8.98711 67.6617 7.89414 68.2082L2.67461 70.818C1.03535 71.6375 0 73.3129 0 75.1455V84.6772C0 85.5678 0.72207 86.2901 1.61289 86.2901H27.4193C28.3102 86.2901 29.0322 85.5678 29.0322 84.6772V75.1457C29.0322 73.3129 27.9967 71.6375 26.3574 70.818Z" fill="#E6AF78"/>
<path d="M14.5162 66.9353C16.2529 66.9353 17.9164 66.5773 19.4414 65.94C19.4014 65.7367 19.3547 65.5346 19.3547 65.3226L19.3551 60.4838H9.67735V65.3228C9.67735 65.5359 9.63067 65.7391 9.59024 65.9432C11.1162 66.5771 12.7789 66.9353 14.5162 66.9353Z" fill="#D29B6E"/>
<path d="M26.3574 70.818L22.6391 68.9588C20.9148 71.6213 17.9244 73.3871 14.5162 73.3871C11.108 73.3871 8.11738 71.6213 6.39316 68.9586L2.6748 70.818C1.03555 71.6375 0 73.3129 0 75.1455V84.6771C0 85.568 0.72207 86.29 1.61289 86.29H27.4193C28.3102 86.29 29.0322 85.568 29.0322 84.6771V75.1457C29.0322 73.3129 27.9967 71.6375 26.3574 70.818Z" fill="#D5DCED"/>
<path d="M14.5162 63.7096C9.59589 63.7096 5.53339 60.0377 4.91914 55.2848C4.83007 54.5961 5.16113 53.9209 5.78105 53.6082C6.52363 53.2336 7.60273 52.602 8.63593 51.6801C9.78652 50.6535 10.4615 49.5709 10.8428 48.7762C11.1711 48.0918 11.9258 47.7047 12.6613 47.8924C18.3402 49.3408 22.2064 52.2953 23.6092 53.5016C23.9857 53.8254 24.2027 54.3029 24.1641 54.7983C23.7732 59.7846 19.6031 63.7096 14.5162 63.7096Z" fill="#F0C087"/>
<path d="M23.609 53.5014C22.2064 52.2951 18.34 49.3406 12.6611 47.8922C11.9256 47.7045 11.1709 48.0916 10.8426 48.776C10.5539 49.3779 10.0768 50.1447 9.36876 50.9275C9.36856 50.9295 9.36798 50.9311 9.36778 50.933C9.14805 51.182 8.91407 51.4316 8.63594 51.6801C7.60274 52.6021 6.52364 53.2336 5.78106 53.6082C5.16114 53.9209 4.83028 54.5963 4.91915 55.285C5.47091 59.5535 8.81114 62.9512 13.049 63.5992C11.118 62.2855 9.67755 60.4789 9.67755 57.2582V54.9582C10.044 54.6877 10.4129 54.418 10.7836 54.0871C11.6801 53.2871 12.4627 52.3619 13.0902 51.3658C17.4346 52.7215 20.3799 54.9795 21.4965 55.9396C21.8022 56.2076 22.5607 56.9068 23.4482 57.7395C23.8301 56.8205 24.0826 55.8346 24.1637 54.7984C24.2025 54.3029 23.9856 53.8254 23.609 53.5014Z" fill="#E6AF78"/>
<path d="M0.983203 72.2381C0.361914 73.0627 0 74.0742 0 75.1455V84.6771C0 85.568 0.72207 86.29 1.61289 86.29H6.45156V78.1631C6.45156 77.1832 6.00605 76.2562 5.24082 75.6441L0.983203 72.2381Z" fill="#C7CFE2"/>
<path d="M73.1724 68.6168L59.6773 63.7094L50 66.9354L40.3226 63.7096L26.8275 68.617C24.2779 69.5441 22.5806 71.9672 22.5806 74.6801V84.6773C22.5806 85.568 23.3027 86.2902 24.1935 86.2902H75.8064C76.6972 86.2902 77.4193 85.568 77.4193 84.6773V74.6801C77.4193 71.967 75.7222 69.5439 73.1724 68.6168Z" fill="#C6004D"/>
<path d="M48.3104 70.1613L46.7742 86.29H53.2258L51.6897 70.1613H48.3104Z" fill="#707487"/>
<path d="M51.6934 72.3772H48.3067C47.683 72.3772 47.1776 71.8717 47.1776 71.2481V66.9354H52.8223V71.2481C52.8225 71.8715 52.317 72.3772 51.6934 72.3772Z" fill="#5B5D6E"/>
<path d="M75.6832 70.2842C76.7723 71.4531 77.4193 73.01 77.4193 74.6799V84.6772C77.4193 85.568 76.6973 86.2901 75.8065 86.2901H67.742V80.8979C67.742 79.1867 68.4217 77.5457 69.6317 76.336L75.6832 70.2842Z" fill="#8F0038"/>
<path d="M67.742 30.4471V16.9354C67.742 15.1537 66.2977 13.7096 64.5162 13.7096H45.1613C38.0351 13.7096 32.258 19.4865 32.258 26.6129V30.4471C32.258 32.1807 32.5375 33.9029 33.0857 35.5475L33.6226 37.1582C33.7871 37.6516 33.8709 38.1682 33.8709 38.6883V39.516H66.1289V38.6883C66.1289 38.1682 66.2127 37.6516 66.3772 37.1582L66.9141 35.5475C67.4625 33.9027 67.742 32.1805 67.742 30.4471Z" fill="#5A4146"/>
<path d="M40.3226 20.2619C40.3226 23.8807 43.2562 26.8143 46.875 26.8143H47.7822L48.2201 39.5158H66.1289V38.6881C66.1289 38.168 66.2127 37.6514 66.3771 37.158L66.914 35.5473C67.4623 33.9027 67.7418 32.1805 67.7418 30.4469V16.9354C67.7418 15.1537 66.2974 13.7096 64.516 13.7096H46.875C43.2562 13.7096 40.3226 16.6432 40.3226 20.2619Z" fill="#694B4B"/>
<path d="M59.6777 52.4199H40.3223V66.9355H59.6777V52.4199Z" fill="#E6AF78"/>
<path d="M40.3226 57.8731C43.1719 59.5236 46.4705 60.4836 50 60.4836C53.5295 60.4836 56.8283 59.5236 59.6773 57.8731V52.4191H40.3224L40.3226 57.8731Z" fill="#D29B6E"/>
<path d="M50 66.9353L44.8558 72.0795C44.1644 72.7709 43.0217 72.6929 42.4307 71.914L37.0969 64.8859L38.492 61.9459C38.9037 61.0783 39.9775 60.7603 40.7951 61.2642L50 66.9353Z" fill="#8F0038"/>
<path d="M50 66.9353L55.1441 72.0795C55.8356 72.7709 56.9783 72.6929 57.5693 71.914L62.9031 64.8859L61.508 61.9459C61.0963 61.0783 60.0225 60.7603 59.2049 61.2642L50 66.9353Z" fill="#8F0038"/>
<path d="M50 57.258C41.0922 57.258 33.8709 50.0367 33.8709 41.1289V39.2393C33.8709 38.3838 34.2108 37.5633 34.8156 36.9582L36.1518 35.6221C36.7567 35.0172 37.0965 34.1967 37.0965 33.341V29.4746C37.0965 28.7277 37.5981 28.0789 38.3248 27.9072C42.1395 27.0063 54.01 24.8721 62.0883 30.8135C62.6129 31.1992 62.9029 31.833 62.9029 32.4842V33.341C62.9029 34.1965 63.2428 35.017 63.8477 35.6221L65.1838 36.9582C65.7887 37.5631 66.1285 38.3836 66.1285 39.2393V41.1289C66.1291 50.0367 58.9078 57.258 50 57.258Z" fill="#F0C087"/>
<path d="M62.0885 30.8137C56.4068 26.635 48.8598 26.4541 43.5484 27.0262C41.308 27.2674 39.4568 27.6402 38.3252 27.9074C37.5984 28.0791 37.0969 28.7279 37.0969 29.4748V33.341C37.0969 34.1967 36.757 35.0172 36.152 35.6223L34.8158 36.9584C34.2108 37.5635 33.8709 38.384 33.8709 39.2396V41.1291C33.8709 49.376 40.0643 56.1652 48.051 57.1291C45.268 54.2309 43.5483 50.3033 43.5483 45.9678V34.1785C43.5483 32.5439 44.7637 31.1779 46.3854 30.9746C50.2561 30.4893 57.3455 30.1975 62.9029 33.3414V32.4844C62.9033 31.8332 62.6127 31.1992 62.0885 30.8137Z" fill="#E6AF78"/>
<path d="M24.3168 70.2842C23.2277 71.4531 22.5806 73.01 22.5806 74.6799V84.6772C22.5806 85.568 23.3027 86.2901 24.1935 86.2901H32.258V80.8979C32.258 79.1867 31.5783 77.5457 30.3683 76.336L24.3168 70.2842Z" fill="#8F0038"/>
</g>
<defs>
<clipPath id="clip0_1_23">
<rect width="100" height="100" fill="white"/>
</clipPath>
</defs>
</svg>
